<svg width="17" height="18" viewBox="0 0 17 18" fill="none" xmlns="http://www.w3.org/2000/svg">
<path d="M12.9262 14.1153C13.3654 13.7805 13.4501 13.153 13.1153 12.7138C12.7805 12.2746 12.153 12.1899 11.7138 12.5247L12.9262 14.1153ZM8 14.8182V15.8182C8.00545 15.8182 8.0109 15.8182 8.01635 15.8181L8 14.8182ZM0 9.00002L-0.881156 8.5272C-1.03479 8.81351 -1.03974 9.15661 -0.894427 9.44724L0 9.00002ZM4.2869 5.4748C4.72584 5.13962 4.80996 4.51207 4.47478 4.07312C4.1396 3.63418 3.51204 3.55006 3.0731 3.88525L4.2869 5.4748ZM6.24481 2.38271C5.70706 2.50858 5.37317 3.04655 5.49905 3.5843C5.62492 4.12205 6.16289 4.45594 6.70064 4.33007L6.24481 2.38271ZM8 3.18184L7.99765 4.18184H8V3.18184ZM16 9.00002L16.8819 9.47144C17.0348 9.18538 17.0395 8.84293 16.8944 8.55281L16 9.00002ZM13.6639 10.6762C13.3083 11.0988 13.3627 11.7296 13.7852 12.0852C14.2078 12.4408 14.8387 12.3865 15.1942 11.9639L13.6639 10.6762ZM10.2734 11.2236C10.6499 10.8195 10.6276 10.1867 10.2235 9.81023C9.81948 9.43373 9.18671 9.45606 8.81021 9.86012L10.2734 11.2236ZM7.1399 8.18982C7.54396 7.81331 7.5663 7.18054 7.18979 6.77648C6.81329 6.37243 6.18052 6.35009 5.77646 6.72659L7.1399 8.18982ZM11.7138 12.5247C10.6403 13.343 9.33322 13.7963 7.98365 13.8183L8.01635 15.8181C9.79275 15.789 11.5133 15.1924 12.9262 14.1153L11.7138 12.5247ZM8 13.8182C5.85405 13.8182 4.10006 12.5901 2.82045 11.2252C2.18976 10.5524 1.70305 9.87588 1.37413 9.36659C1.21029 9.1129 1.08723 8.90326 1.00652 8.75976C0.966199 8.68808 0.93656 8.63312 0.917791 8.59765C0.90841 8.57992 0.901755 8.56708 0.897851 8.55949C0.895899 8.55569 0.894636 8.55321 0.894064 8.55208C0.893778 8.55152 0.893665 8.55129 0.893725 8.55141C0.893756 8.55147 0.893829 8.55162 0.893946 8.55185C0.894004 8.55197 0.894125 8.55221 0.894154 8.55226C0.894285 8.55253 0.894427 8.55281 0 9.00002C-0.894427 9.44724 -0.894263 9.44757 -0.894087 9.44792C-0.894014 9.44806 -0.893827 9.44844 -0.89368 9.44873C-0.893385 9.44932 -0.893046 9.44999 -0.892661 9.45076C-0.891891 9.45229 -0.89094 9.45417 -0.889808 9.4564C-0.887544 9.46087 -0.884558 9.46673 -0.88085 9.47394C-0.873435 9.48836 -0.863133 9.5082 -0.849964 9.53308C-0.823634 9.58284 -0.785801 9.65287 -0.736632 9.74029C-0.63837 9.91497 -0.494383 10.1599 -0.305948 10.4516C0.069679 11.0333 0.628425 11.8112 1.36137 12.5931C2.80903 14.1372 5.05504 15.8182 8 15.8182V13.8182ZM0.881156 9.47285C1.71838 7.9126 2.8796 6.54943 4.2869 5.4748L3.0731 3.88525C1.43914 5.13295 0.090911 6.71566 -0.881156 8.5272L0.881156 9.47285ZM6.70064 4.33007C7.12577 4.23056 7.56103 4.18081 7.99765 4.18184L8.00235 2.18184C7.4107 2.18045 6.82089 2.24786 6.24481 2.38271L6.70064 4.33007ZM8 4.18184C10.1459 4.18184 11.8999 5.40995 13.1796 6.77487C13.8102 7.44761 14.297 8.12417 14.6259 8.63346C14.7897 8.88714 14.9128 9.09679 14.9935 9.24028C15.0338 9.31196 15.0634 9.36693 15.0822 9.4024C15.0916 9.42013 15.0982 9.43297 15.1021 9.44056C15.1041 9.44436 15.1054 9.44684 15.1059 9.44797C15.1062 9.44853 15.1063 9.44876 15.1063 9.44864C15.1062 9.44858 15.1062 9.44843 15.1061 9.4482C15.106 9.44808 15.1059 9.44784 15.1058 9.44778C15.1057 9.44752 15.1056 9.44724 16 9.00002C16.8944 8.55281 16.8943 8.55248 16.8941 8.55213C16.894 8.55198 16.8938 8.55161 16.8937 8.55132C16.8934 8.55073 16.893 8.55006 16.8927 8.54929C16.8919 8.54776 16.8909 8.54588 16.8898 8.54364C16.8875 8.53918 16.8846 8.53332 16.8808 8.52611C16.8734 8.51168 16.8631 8.49185 16.85 8.46696C16.8236 8.41721 16.7858 8.34717 16.7366 8.25976C16.6384 8.08507 16.4944 7.84018 16.3059 7.54841C15.9303 6.96679 15.3716 6.1888 14.6386 5.40699C13.191 3.86283 10.945 2.18184 8 2.18184V4.18184ZM15.1181 8.52861C14.7094 9.29312 14.2221 10.0129 13.6639 10.6762L15.1942 11.9639C15.842 11.1941 16.4076 10.3587 16.8819 9.47144L15.1181 8.52861ZM8.81021 9.86012C8.51559 10.1763 8.07188 10.3065 7.65315 10.1995L7.15826 12.1373C8.28562 12.4252 9.48022 12.0748 10.2734 11.2236L8.81021 9.86012ZM7.65315 10.1995C7.23441 10.0926 6.90745 9.76561 6.80051 9.34688L4.8627 9.84176C5.15061 10.9691 6.03091 11.8494 7.15826 12.1373L7.65315 10.1995ZM6.80051 9.34688C6.69357 8.92815 6.82372 8.48444 7.1399 8.18982L5.77646 6.72659C4.9252 7.5198 4.5748 8.71441 4.8627 9.84176L6.80051 9.34688Z" fill="#999999"/>
<path d="M0 1L16 17" stroke="#999999" stroke-width="2" stroke-linecap="round" stroke-linejoin="round"/>
</svg>
